<svg xmlns="http://www.w3.org/2000/svg" version="1.1" id="Layer_1" viewBox="0 0 512 512" width="512" height="512"><metadata><rdf:RDF xmlns:rdf="http://www.w3.org/1999/02/22-rdf-syntax-ns#" xmlns:dc="http://purl.org/dc/elements/1.1/"><rdf:Description><dc:creator>RealFaviconGenerator</dc:creator><dc:source>https://realfavicongenerator.net</dc:source></rdf:Description></rdf:RDF></metadata><defs>
    <style>
      .st0 {
        fill: #ff5100;
      }
    </style>
  </defs><path class="st0" d="M269.36,447.82c-2.16,2.31-3.54,5.04-4.34,7.89-7.5.82-15.1,1.29-22.81,1.29-116.47,0-211.23-94.76-211.23-211.23,0-65.41,29.89-123.96,76.72-162.74l-13.72-15.66C42.8,109.97,10.15,174.13,10.15,245.77c0,127.96,104.1,232.06,232.06,232.06,10.06,0,19.96-.66,29.69-1.92,7.67,5.76,18.56,5.01,25.25-2.15,7.16-7.67,6.75-19.7-.92-26.87-7.67-7.16-19.7-6.75-26.87.92Z"></path><path class="st0" d="M324.75,296.02h-139.66l60.59,68.37c-1.16.03-2.31.09-3.47.09-65.45,0-118.7-53.25-118.7-118.7s53.25-118.7,118.7-118.7,118.7,53.25,118.7,118.7c0,4.03-.24,8.01-.64,11.93-2.95,1.47-5.59,3.66-7.51,6.63-5.69,8.82-3.16,20.58,5.66,26.28,8.82,5.69,20.58,3.16,26.28-5.66,5.24-8.12,3.44-18.69-3.76-24.76.49-4.75.81-9.55.81-14.42,0-76.94-62.6-139.54-139.54-139.54s-139.54,62.6-139.54,139.54,62.6,139.54,139.54,139.54c7.02,0,13.91-.53,20.65-1.54,7.9-1.18,15.57-3.04,22.98-5.49l-15.29-17.26-39.15-44.17h83.9l140.6,160.6h-82.17l-23.42-26.43c-6.38,3.37-12.93,6.47-19.65,9.25l33.7,38.02h137.48l-177.1-202.27Z"></path><path class="st0" d="M157.59,60.02c2.64-2.82,4.23-6.24,4.83-9.79,24.63-10.09,51.57-15.68,79.8-15.68,116.47,0,211.23,94.76,211.23,211.23,0,41.31-11.99,79.83-32.58,112.4l14.29,16.31c24.68-36.86,39.13-81.12,39.13-128.71,0-127.96-104.11-232.07-232.07-232.07-31.2,0-60.96,6.23-88.15,17.46-7.59-4.97-17.86-3.95-24.26,2.9-7.16,7.67-6.75,19.7.92,26.87,7.67,7.16,19.7,6.75,26.87-.92Z"></path><style>@media (prefers-color-scheme: light) { :root { filter: none; } }
@media (prefers-color-scheme: dark) { :root { filter: none; } }
</style></svg>