<?xml version="1.0" encoding="UTF-8"?>
<svg id="Layer_1" data-name="Layer 1" xmlns="http://www.w3.org/2000/svg" viewBox="0 0 477.74 117.35">
  <g>
    <path d="M64.18,98.62c-.45.48-.74,1.05-.9,1.64-1.56.17-3.14.27-4.75.27-24.26,0-43.99-19.73-43.99-43.99,0-13.62,6.22-25.82,15.98-33.89l-2.86-3.26c-10.66,8.87-17.46,22.23-17.46,37.15,0,26.65,21.68,48.33,48.33,48.33,2.09,0,4.16-.14,6.18-.4,1.6,1.2,3.86,1.04,5.26-.45,1.49-1.6,1.41-4.1-.19-5.59-1.6-1.49-4.1-1.41-5.59.19Z" fill="#f15f22"/>
    <path d="M75.72,67.01h-29.09l12.62,14.24c-.24,0-.48.02-.72.02-13.63,0-24.72-11.09-24.72-24.72s11.09-24.72,24.72-24.72,24.72,11.09,24.72,24.72c0,.84-.05,1.67-.13,2.48-.61.31-1.16.76-1.56,1.38-1.19,1.84-.66,4.29,1.18,5.47s4.29.66,5.47-1.18c1.09-1.69.72-3.89-.78-5.16.1-.99.17-1.99.17-3,0-16.02-13.04-29.06-29.06-29.06s-29.06,13.04-29.06,29.06,13.04,29.06,29.06,29.06c1.46,0,2.9-.11,4.3-.32,1.64-.25,3.24-.63,4.79-1.14l-3.19-3.59-8.15-9.2h17.47l29.28,33.45h-17.11l-4.88-5.5c-1.33.7-2.69,1.35-4.09,1.93l7.02,7.92h28.63l-36.88-42.12Z" fill="#f15f22"/>
    <path d="M40.9,17.86c.55-.59.88-1.3,1.01-2.04,5.13-2.1,10.74-3.27,16.62-3.27,24.26,0,43.99,19.73,43.99,43.99,0,8.6-2.5,16.62-6.78,23.41l2.98,3.4c5.14-7.68,8.15-16.89,8.15-26.8,0-26.65-21.68-48.33-48.33-48.33-6.5,0-12.7,1.3-18.36,3.64-1.58-1.03-3.72-.82-5.05.6-1.49,1.6-1.41,4.1.19,5.59,1.6,1.49,4.1,1.41,5.59-.19Z" fill="#f15f22"/>
  </g>
  <g>
    <path d="M146.16,58.96v-.05c-.01-4.97-3.81-8.7-8.85-8.7h-.03c-2.48,0-4.75.94-6.39,2.62-1.6,1.64-2.48,3.83-2.48,6.18v.05c.01,4.97,3.81,8.71,8.85,8.71h.03c1.83,0,3.57-.54,5.05-1.54l2.03,1.8,2.09-2.34-1.92-1.62c1.06-1.5,1.62-3.26,1.62-5.1ZM137.09,61.7l2.83,2.4c-.78.41-1.67.63-2.6.63h-.02c-1.53,0-2.92-.59-3.94-1.67-1-1.06-1.56-2.5-1.56-4.05v-.05c0-1.55.53-2.99,1.51-4.05,1-1.08,2.4-1.68,3.93-1.68h.02c1.52,0,2.92.6,3.94,1.69,1,1.07,1.56,2.51,1.56,4.06v.05c0,1.07-.23,2.05-.68,2.91l-2.91-2.63-2.09,2.39Z" fill="#ffffff"/>
    <path d="M161.37,50.43l.03,9.75c0,1.46-.35,2.59-1.07,3.35-.69.74-1.68,1.11-2.95,1.12h-.02c-1.26,0-2.26-.39-2.95-1.15-.72-.79-1.09-1.94-1.09-3.42l-.03-9.63h-3.25s.03,9.76.03,9.76c.01,4.75,2.65,7.47,7.25,7.47h.03c2.23,0,4.07-.68,5.32-1.94,1.32-1.33,1.99-3.25,1.98-5.72l-.03-9.61h-3.25Z" fill="#ffffff"/>
    <path d="M174.63,50.27l-7.32,16.9-.1.23h3.35s1.7-4.04,1.7-4.04l7.66-.02,1.66,3.92.04.1h3.45s-7.52-17.09-7.52-17.09h-2.92ZM178.71,60.42h-5.25s2.59-6.09,2.59-6.09l2.65,6.09Z" fill="#ffffff"/>
    <polygon points="191.71 64.34 191.67 50.34 188.42 50.35 188.47 67.33 200.32 67.3 200.48 67.3 200.47 64.31 191.71 64.34" fill="#ffffff"/>
    <rect x="204.29" y="50.3" width="3.25" height="16.98" transform="translate(-.17 .6) rotate(-.17)" fill="#ffffff"/>
    <polygon points="225.25 50.25 211.57 50.28 211.4 50.28 211.41 53.32 216.7 53.3 216.74 67.25 220.01 67.24 219.97 53.3 225.26 53.28 225.25 50.25" fill="#ffffff"/>
    <polygon points="240.15 50.2 235.55 57.43 231.02 50.3 230.98 50.23 227.11 50.24 233.9 60.52 233.92 67.2 237.19 67.19 237.17 60.44 243.9 50.19 240.15 50.2" fill="#ffffff"/>
    <path d="M267.74,62.26c-1.38,1.3-2.65,2.11-4.67,2.11h-.02c-3.03,0-5.33-2.46-5.34-5.73v-.05c0-1.55.53-2.99,1.51-4.06.99-1.08,2.34-1.67,3.81-1.68h.02c1.63,0,3.04.62,4.54,2.01l.12.11,2.08-2.41-.11-.11c-1.36-1.3-3.22-2.62-6.6-2.62h-.04c-4.99.02-8.74,3.8-8.73,8.8v.05c.01,4.97,3.72,8.7,8.63,8.7h.03c3.52-.01,5.45-1.53,6.87-3.02l.11-.11-2.11-2.12-.11.11Z" fill="#ffffff"/>
    <path d="M279.51,49.97l-7.32,16.9-.1.23h3.35s1.7-4.04,1.7-4.04l7.66-.02,1.66,3.92.04.1h3.45s-7.52-17.09-7.52-17.09h-2.92ZM283.59,60.12h-5.25s2.59-6.09,2.59-6.09l2.65,6.09Z" fill="#ffffff"/>
    <path d="M304.44,58.14c1.45-.86,2.15-2.07,2.14-3.69v-.05c0-1.15-.39-2.09-1.17-2.87-.99-.99-2.53-1.51-4.45-1.51h-.03l-7.47.02h-.16l.05,16.98,7.87-.02c3.96-.01,6.32-1.79,6.31-4.75v-.05c0-1.97-.99-3.27-3.09-4.07ZM304.28,61.91v.05c0,.68-.26,1.21-.78,1.58-.52.36-1.3.55-2.26.56l-4.69.02v-4.25s4.47-.01,4.47-.01h.03c1.08,0,1.91.19,2.46.56.52.35.78.85.78,1.51ZM303.33,54.94c0,.68-.26,1.21-.79,1.57-.51.35-1.26.53-2.18.54h-3.84s-.01-4.09-.01-4.09h4.05s.01-.01.02-.01c1.75,0,2.75.71,2.75,1.95v.05Z" fill="#ffffff"/>
    <polygon points="314.72 63.98 314.68 49.99 311.43 50 311.48 66.98 323.33 66.94 323.49 66.94 323.48 63.96 314.72 63.98" fill="#ffffff"/>
    <polygon points="330.4 63.98 330.39 59.83 338.58 59.81 338.74 59.81 338.73 56.87 330.38 56.89 330.37 52.88 339.63 52.86 339.79 52.86 339.78 49.91 327.27 49.95 327.11 49.95 327.16 66.93 339.79 66.9 339.95 66.9 339.94 63.96 330.4 63.98" fill="#ffffff"/>
    <path d="M358.76,56.86c-3.27-.76-3.85-1.31-3.86-2.45v-.04c0-1.09,1.02-1.82,2.55-1.82h.01c1.46,0,2.9.55,4.42,1.67l.13.1,1.75-2.48-.12-.09c-1.79-1.43-3.79-2.13-6.15-2.11-1.64,0-3.13.5-4.18,1.39-1.07.91-1.65,2.19-1.65,3.61v.05c0,3.15,2.09,4.26,5.69,5.12,3.09.7,3.64,1.33,3.64,2.38v.05c0,.56-.25,1.04-.73,1.38-.5.36-1.21.56-2.06.56h-.02c-1.86,0-3.44-.65-5.14-2.11l-.12-.11-1.96,2.34.12.1c1.98,1.76,4.41,2.69,7.03,2.69h.03c3.71-.01,6.1-2.03,6.1-5.15v-.05c0-2.64-1.59-4.09-5.47-5.02Z" fill="#ffffff"/>
    <polygon points="378.75 49.8 374.14 57.03 369.62 49.9 369.57 49.83 365.71 49.84 372.49 60.12 372.51 66.8 375.78 66.79 375.76 60.04 382.49 49.79 378.75 49.8" fill="#ffffff"/>
    <path d="M391.38,56.77c-3.27-.76-3.85-1.31-3.86-2.45v-.04c0-1.08,1.02-1.82,2.55-1.82h.02c1.45,0,2.9.55,4.41,1.67l.13.1,1.75-2.48-.12-.09c-1.78-1.42-3.78-2.11-6.12-2.11h-.03c-1.64,0-3.13.5-4.18,1.4-1.07.91-1.65,2.19-1.65,3.61v.05c0,3.15,2.09,4.26,5.69,5.12,3.09.7,3.64,1.33,3.64,2.38v.05c0,.56-.25,1.04-.73,1.38-.5.36-1.21.56-2.06.56h-.02c-1.85,0-3.44-.65-5.14-2.11l-.12-.11-1.96,2.34.12.1c1.98,1.76,4.41,2.69,7.03,2.69h.03c3.71-.01,6.1-2.03,6.1-5.15v-.05c0-2.63-1.59-4.09-5.47-5.02Z" fill="#ffffff"/>
    <polygon points="413.19 49.7 399.51 49.74 399.34 49.74 399.35 52.78 404.64 52.76 404.68 66.71 407.95 66.7 407.91 52.75 413.19 52.74 413.19 49.7" fill="#ffffff"/>
    <polygon points="420.19 63.72 420.18 59.57 428.38 59.55 428.54 59.55 428.53 56.61 420.17 56.63 420.16 52.62 429.43 52.6 429.59 52.6 429.58 49.65 417.07 49.69 416.9 49.69 416.95 66.67 429.59 66.64 429.75 66.64 429.74 63.7 420.19 63.72" fill="#ffffff"/>
    <polygon points="447.13 49.6 442.17 57.36 437.21 49.71 437.17 49.63 433.8 49.64 433.85 66.62 437.05 66.62 437.02 55.09 441.95 62.44 442 62.51 442.27 62.51 447.26 55.01 447.29 66.59 450.54 66.58 450.49 49.59 447.13 49.6" fill="#ffffff"/>
    <path d="M462.07,56.56c-3.27-.76-3.85-1.31-3.86-2.45v-.04c0-1.09,1.02-1.82,2.55-1.82h.01c1.46,0,2.9.55,4.42,1.67l.13.1,1.75-2.48-.12-.09c-1.78-1.42-3.78-2.11-6.12-2.11h-.03c-1.64,0-3.13.5-4.18,1.39-1.07.91-1.65,2.19-1.65,3.61v.05c0,3.15,2.09,4.26,5.69,5.12,3.09.7,3.64,1.33,3.64,2.38v.05c0,.56-.25,1.04-.73,1.38-.5.36-1.21.56-2.06.56-1.87-.01-3.46-.65-5.16-2.11l-.12-.11-1.96,2.34.12.1c1.98,1.76,4.41,2.69,7.03,2.69h.03c3.71-.01,6.1-2.03,6.1-5.15v-.05c0-2.64-1.59-4.09-5.47-5.02Z" fill="#ffffff"/>
  </g>
</svg>